<svg id="Layer_2" data-name="Layer 2" xmlns="http://www.w3.org/2000/svg" xmlns:xlink="http://www.w3.org/1999/xlink" viewBox="0 0 387 192"><defs><style>.cls-1,.cls-10,.cls-11,.cls-12,.cls-13,.cls-14,.cls-15,.cls-16,.cls-17,.cls-18,.cls-19,.cls-20,.cls-21,.cls-22,.cls-23,.cls-24,.cls-25,.cls-26,.cls-27,.cls-28,.cls-29,.cls-3,.cls-30,.cls-31,.cls-32,.cls-33,.cls-34,.cls-4,.cls-5,.cls-6,.cls-7,.cls-8,.cls-9{fill:none;}.cls-2{clip-path:url(#clip-path);}.cls-10,.cls-11,.cls-12,.cls-13,.cls-14,.cls-15,.cls-16,.cls-17,.cls-18,.cls-19,.cls-20,.cls-21,.cls-22,.cls-23,.cls-24,.cls-25,.cls-26,.cls-27,.cls-28,.cls-29,.cls-3,.cls-30,.cls-31,.cls-32,.cls-33,.cls-34,.cls-4,.cls-5,.cls-6,.cls-7,.cls-8,.cls-9{stroke-miterlimit:10;}.cls-3{stroke:url(#linear-gradient);}.cls-4{stroke:url(#linear-gradient-2);}.cls-5{stroke:url(#linear-gradient-3);}.cls-6{stroke:url(#linear-gradient-4);}.cls-7{stroke:url(#linear-gradient-5);}.cls-8{stroke:url(#linear-gradient-6);}.cls-9{stroke:url(#linear-gradient-7);}.cls-10{stroke:url(#linear-gradient-8);}.cls-11{stroke:url(#linear-gradient-9);}.cls-12{stroke:url(#linear-gradient-10);}.cls-13{stroke:url(#linear-gradient-11);}.cls-14{stroke:url(#linear-gradient-12);}.cls-15{stroke:url(#linear-gradient-13);}.cls-16{stroke:url(#linear-gradient-14);}.cls-17{stroke:url(#linear-gradient-15);}.cls-18{stroke:url(#linear-gradient-16);}.cls-19{stroke:url(#linear-gradient-17);}.cls-20{stroke:url(#linear-gradient-18);}.cls-21{stroke:url(#linear-gradient-19);}.cls-22{stroke:url(#linear-gradient-20);}.cls-23{stroke:url(#linear-gradient-21);}.cls-24{stroke:url(#linear-gradient-22);}.cls-25{stroke:url(#linear-gradient-23);}.cls-26{stroke:url(#linear-gradient-24);}.cls-27{stroke:url(#linear-gradient-25);}.cls-28{stroke:url(#linear-gradient-26);}.cls-29{stroke:url(#linear-gradient-27);}.cls-30{stroke:url(#linear-gradient-28);}.cls-31{stroke:url(#linear-gradient-29);}.cls-32{stroke:url(#linear-gradient-30);}.cls-33{stroke:url(#linear-gradient-31);}.cls-34{stroke:url(#linear-gradient-32);}</style><clipPath id="clip-path"><rect class="cls-1" x="0.33" y="0.33" width="387" height="191.67"/></clipPath><linearGradient id="linear-gradient" x1="171.6" y1="184.22" x2="452.88" y2="184.22" gradientUnits="userSpaceOnUse"><stop offset="0" stop-color="#fff" stop-opacity="0"/><stop offset="0.01" stop-color="#fef7f7" stop-opacity="0.06"/><stop offset="0.05" stop-color="#fcdfde" stop-opacity="0.25"/><stop offset="0.08" stop-color="#fbcdcd" stop-opacity="0.39"/><stop offset="0.11" stop-color="#fac3c2" stop-opacity="0.47"/><stop offset="0.13" stop-color="#fabfbe" stop-opacity="0.5"/><stop offset="0.22" stop-color="#fabfb5" stop-opacity="0.6"/><stop offset="0.38" stop-color="#fabfa8" stop-opacity="0.74"/><stop offset="0.53" stop-color="#fabf9e" stop-opacity="0.86"/><stop offset="0.69" stop-color="#fabf97" stop-opacity="0.94"/><stop offset="0.84" stop-color="#fabf92" stop-opacity="0.98"/><stop offset="1" stop-color="#fabf91"/></linearGradient><linearGradient id="linear-gradient-2" x1="167.42" y1="184.68" x2="451.39" y2="184.68" xlink:href="#linear-gradient"/><linearGradient id="linear-gradient-3" x1="163.23" y1="185.15" x2="449.91" y2="185.15" xlink:href="#linear-gradient"/><linearGradient id="linear-gradient-4" x1="159.05" y1="185.64" x2="448.42" y2="185.64" xlink:href="#linear-gradient"/><linearGradient id="linear-gradient-5" x1="154.86" y1="186.14" x2="446.94" y2="186.14" xlink:href="#linear-gradient"/><linearGradient id="linear-gradient-6" x1="150.66" y1="186.66" x2="445.45" y2="186.66" xlink:href="#linear-gradient"/><linearGradient id="linear-gradient-7" x1="146.47" y1="187.2" x2="443.96" y2="187.2" xlink:href="#linear-gradient"/><linearGradient id="linear-gradient-8" x1="142.28" y1="187.74" x2="442.48" y2="187.74" xlink:href="#linear-gradient"/><linearGradient id="linear-gradient-9" x1="138.08" y1="188.31" x2="440.99" y2="188.31" xlink:href="#linear-gradient"/><linearGradient id="linear-gradient-10" x1="133.88" y1="188.89" x2="439.51" y2="188.89" xlink:href="#linear-gradient"/><linearGradient id="linear-gradient-11" x1="129.69" y1="189.48" x2="438.02" y2="189.48" xlink:href="#linear-gradient"/><linearGradient id="linear-gradient-12" x1="125.49" y1="190.09" x2="436.53" y2="190.09" xlink:href="#linear-gradient"/><linearGradient id="linear-gradient-13" x1="121.3" y1="190.71" x2="435.05" y2="190.71" xlink:href="#linear-gradient"/><linearGradient id="linear-gradient-14" x1="117.11" y1="191.34" x2="433.56" y2="191.34" xlink:href="#linear-gradient"/><linearGradient id="linear-gradient-15" x1="112.93" y1="191.99" x2="432.08" y2="191.99" xlink:href="#linear-gradient"/><linearGradient id="linear-gradient-16" x1="108.75" y1="192.64" x2="430.59" y2="192.64" xlink:href="#linear-gradient"/><linearGradient id="linear-gradient-17" x1="104.57" y1="193.31" x2="429.1" y2="193.31" xlink:href="#linear-gradient"/><linearGradient id="linear-gradient-18" x1="100.39" y1="193.98" x2="427.62" y2="193.98" xlink:href="#linear-gradient"/><linearGradient id="linear-gradient-19" x1="96.22" y1="194.67" x2="426.13" y2="194.67" xlink:href="#linear-gradient"/><linearGradient id="linear-gradient-20" x1="92.05" y1="195.36" x2="424.64" y2="195.36" xlink:href="#linear-gradient"/><linearGradient id="linear-gradient-21" x1="87.88" y1="196.05" x2="423.16" y2="196.05" xlink:href="#linear-gradient"/><linearGradient id="linear-gradient-22" x1="83.72" y1="196.76" x2="421.67" y2="196.76" xlink:href="#linear-gradient"/><linearGradient id="linear-gradient-23" x1="79.55" y1="197.47" x2="420.19" y2="197.47" xlink:href="#linear-gradient"/><linearGradient id="linear-gradient-24" x1="75.39" y1="198.19" x2="418.7" y2="198.19" xlink:href="#linear-gradient"/><linearGradient id="linear-gradient-25" x1="71.23" y1="198.9" x2="417.22" y2="198.9" xlink:href="#linear-gradient"/><linearGradient id="linear-gradient-26" x1="67.04" y1="199.6" x2="415.73" y2="199.6" xlink:href="#linear-gradient"/><linearGradient id="linear-gradient-27" x1="62.83" y1="200.32" x2="414.25" y2="200.32" xlink:href="#linear-gradient"/><linearGradient id="linear-gradient-28" x1="58.6" y1="201.04" x2="412.76" y2="201.04" xlink:href="#linear-gradient"/><linearGradient id="linear-gradient-29" x1="54.36" y1="201.77" x2="411.28" y2="201.77" xlink:href="#linear-gradient"/><linearGradient id="linear-gradient-30" x1="50.11" y1="202.5" x2="409.8" y2="202.5" xlink:href="#linear-gradient"/><linearGradient id="linear-gradient-31" x1="45.84" y1="203.23" x2="408.31" y2="203.23" xlink:href="#linear-gradient"/><linearGradient id="linear-gradient-32" x1="41.56" y1="203.79" x2="406.81" y2="203.79" xlink:href="#linear-gradient"/></defs><title>CTA-wave-forms</title><g class="cls-2"><path class="cls-3" d="M452.3,359.74c1.95,18.57-34,7.66-62.93-101.22C378.89,219.06,310.77,209.44,228,191,183.14,181,207.56,1.2,171.6,1.35"/><path class="cls-4" d="M450.82,361.24c1.88,18-32.86,5.19-62.89-101.54-11.1-39.46-76.65-53.2-159-71.65-45-10.1-27.06-185.28-61.48-186.7"/><path class="cls-5" d="M449.34,362.74c1.82,17.38-31.77,2.73-62.85-101.85-11.73-39.46-74.69-57.31-156.63-75.78C184.71,174.89,196.17,4.36,163.28,1.35"/><path class="cls-6" d="M447.85,364.24c1.76,16.78-30.73.26-62.81-102.17-12.36-39.47-72.73-61.42-154.26-79.91-45.28-10.32-40.3-176.22-71.66-180.8"/><path class="cls-7" d="M446.37,365.74c1.7,16.18-29.73-2.21-62.77-102.48-13-39.48-70.78-65.53-151.89-84C186.28,168.78,184.78,7.52,155,1.35"/><path class="cls-8" d="M444.89,367.24c1.63,15.58-28.78-4.67-62.74-102.8-13.67-39.5-68.82-69.65-149.52-88.17C187.06,165.73,179.09,9.09,150.8,1.35"/><path class="cls-9" d="M443.4,368.74c1.57,15-27.88-7.13-62.7-103.12-14.33-39.51-66.86-73.76-147.15-92.3-45.7-10.64-60.16-162.64-86.92-172"/><path class="cls-10" d="M441.92,370.23c1.51,14.38-27-9.59-62.66-103.43-15-39.53-64.9-77.87-144.79-96.43-45.84-10.75-66.78-158.12-92-169"/><path class="cls-11" d="M440.44,371.73c1.44,13.78-26.2-12-62.62-103.75-15.71-39.55-62.94-82-142.42-100.57-46-10.86-73.4-153.59-97.09-166.07"/><path class="cls-12" d="M439,373.23c1.38,13.18-25.43-14.47-62.58-104.06-16.41-39.57-61-86.09-140-104.7-46.12-11-80-149.06-102.18-163.12"/><path class="cls-13" d="M437.47,374.73c1.32,12.58-24.69-16.91-62.54-104.38-17.13-39.59-59-90.21-137.68-108.83C191,150.45,150.62,17,130,1.36"/><path class="cls-14" d="M436,376.23c1.26,12-24-19.33-62.5-104.69-17.86-39.6-57.07-94.32-135.31-113-46.4-11.19-93.26-140-112.35-157.22"/><path class="cls-15" d="M434.51,377.73c1.19,11.38-23.35-21.74-62.47-105-18.61-39.62-55.11-98.43-132.94-117.09C192.56,144.34,139.23,20.15,121.67,1.36"/><path class="cls-16" d="M433,379.23c1.13,10.79-22.74-24.13-62.43-105.33C351.23,234.27,317.44,171.36,240,152.69c-46.68-11.4-106.49-131-122.52-151.33"/><path class="cls-17" d="M431.54,380.73c1.07,10.19-22.17-26.52-62.39-105.64C349,235.45,318,168.43,241,149.74,194.14,138.23,127.84,23.31,113.34,1.36"/><path class="cls-18" d="M430.06,382.22c1,9.59-21.63-28.88-62.35-106-20.94-39.63-49.24-110.77-125.83-129.48-47-11.62-119.73-121.9-132.7-145.43"/><path class="cls-19" d="M428.57,383.72c.94,9-21.12-31.23-62.31-106.27C344.52,237.83,319,162.57,242.8,143.84,195.71,132.12,116.45,26.47,105,1.36"/><path class="cls-20" d="M427.09,385.22c.88,8.39-20.65-33.57-62.27-106.59-22.57-39.6-45.32-119-121.09-137.74C196.49,129.06,110.76,28,100.86,1.36"/><path class="cls-21" d="M425.61,386.72c.82,7.79-20.21-35.89-62.23-106.9C340,240.24,320,156.71,244.66,137.95,197.28,126,105.06,29.63,96.7,1.36"/><path class="cls-22" d="M424.13,388.22c.75,7.19-19.8-38.18-62.19-107.22-24.28-39.53-41.41-127.21-116.35-146C198.06,122.95,99.37,31.21,92.54,1.36"/><path class="cls-23" d="M422.64,389.72c.69,6.59-19.42-40.46-62.16-107.54-25.15-39.48-39.45-131.33-114-150.13C198.85,119.89,93.67,32.79,88.38,1.36"/><path class="cls-24" d="M421.16,391.22c.63,6-19.06-42.71-62.12-107.85C333,243.95,321.55,147.93,247.43,129.11,199.64,116.84,88,34.36,84.22,1.36"/><path class="cls-25" d="M419.68,392.71c.57,5.39-18.73-44.95-62.08-108.17-27-39.33-35.54-139.55-109.24-158.39C200.42,113.78,82.29,35.94,80.05,1.36"/><path class="cls-26" d="M418.19,394.21c.5,4.79-18.42-47.16-62-108.48-27.9-39.23-33.58-143.66-106.87-162.52C201.21,110.73,76.59,37.52,75.89,1.36"/><path class="cls-27" d="M416.71,395.71c.44,4.19-18.13-49.34-62-108.8-28.86-39.11-31.62-147.77-104.5-166.65C202,107.67,70.9,39.1,71.73,1.36"/><path class="cls-28" d="M415.23,397.21c.38,3.6-17.85-51.5-62-109.11-29.83-39-29.66-151.89-102.13-170.78C202.78,104.62,65.2,40.68,67.57,1.36"/><path class="cls-29" d="M413.74,398.71c.31,3-17.6-53.64-61.92-109.43-30.83-38.8-27.7-156-99.76-174.91C203.56,101.56,59.51,42.26,63.41,1.36"/><path class="cls-30" d="M412.26,400.21c.25,2.4-17.35-55.74-61.88-109.75-31.84-38.61-25.75-160.11-97.39-179C204.35,98.51,53.81,43.84,59.25,1.36"/><path class="cls-31" d="M410.78,401.71c.19,1.8-17.11-57.82-61.85-110.06-32.88-38.39-23.79-164.22-95-183.17C205.14,95.45,48.12,45.42,55.09,1.36"/><path class="cls-32" d="M409.29,403.2c.13,1.2-16.89-59.87-61.81-110.38-33.93-38.15-21.83-168.33-92.65-187.3C205.92,92.39,42.43,47,50.92,1.36"/><path class="cls-33" d="M407.81,404.7c.06.6-16.66-61.89-61.77-110.69-35-37.87-19.87-172.45-90.28-191.43-49.05-13.24-219-54-209-101.22"/><path class="cls-34" d="M406.33,406.2s-16.44-63.88-61.73-111c-36.1-37.56-17.92-176.56-87.92-195.56C207.49,86.28,31,50.16,42.6,1.36"/></g></svg>